<?xml version="1.0" encoding="UTF-8" standalone="no"?>
<!DOCTYPE svg PUBLIC "-//W3C//DTD SVG 1.1//EN"
"http://www.w3.org/Graphics/SVG/1.1/DTD/svg11.dtd">
<svg viewBox="0 0 1210 935" version="1.1" xmlns="http://www.w3.org/2000/svg" xmlns:xlink="http://www.w3.org/1999/xlink">
<defs>
<style type="text/css"><![CDATA[
.g1_1{
fill: none;
stroke: #231F20;
stroke-width: 0.60041666;
stroke-linecap: square;
stroke-linejoin: miter;
}
.g2_1{
fill: #231F20;
}
.g3_1{
fill: none;
stroke: #231F20;
stroke-width: 0.25972223;
stroke-linecap: butt;
stroke-linejoin: miter;
}
.g4_1{
fill: none;
stroke: #231F20;
stroke-width: 0.60041666;
stroke-linecap: butt;
stroke-linejoin: miter;
}
.g5_1{
fill: #FFFFFF;
}
.g6_1{
fill: none;
stroke: #231F20;
stroke-width: 1.2008333;
stroke-linecap: butt;
stroke-linejoin: miter;
}
.g7_1{
fill: none;
stroke: #231F20;
stroke-width: 1.2023611;
stroke-linecap: butt;
stroke-linejoin: miter;
}
.g8_1{
fill: none;
stroke: #B2B4B7;
stroke-width: 4.1295834;
stroke-linecap: butt;
stroke-linejoin: miter;
}
.g9_1{
fill: none;
stroke: #DEE3F3;
stroke-width: 0.60041666;
stroke-linecap: square;
stroke-linejoin: miter;
}
.g10_1{
fill: none;
stroke: #231F20;
stroke-width: 1.2008333;
stroke-linecap: square;
stroke-linejoin: miter;
}
.g11_1{
fill: #D3CEC6;
}
.g12_1{
fill: #828386;
}
]]></style>
</defs>
<path d="M730.3,543.8l0,-59.1l458.1,0l0,59.1Z" class="g1_1" />
<path d="M23,670.1l0,101.3l316,0l0,-118.6l-316,0l0,17.3Z" class="g2_1" />
<path d="M40.3,652.8l281.4,0" class="g3_1" />
<path d="M40.3,771.4l281.4,0" class="g3_1" />
<path d="M339,670.1l0,84.1" class="g3_1" />
<path d="M23,670.1l0,84.1" class="g3_1" />
<path d="M23,754.2l0,17.5" class="g4_1" />
<path d="M22.7,771.4l17.6,0" class="g4_1" />
<path d="M321.7,771.4l17.6,0" class="g4_1" />
<path d="M339,771.7l0,-17.5" class="g4_1" />
<path d="M339,670.1l0,-17.6" class="g4_1" />
<path d="M339.3,652.8l-17.6,0" class="g4_1" />
<path d="M40.3,652.8l-17.6,0" class="g4_1" />
<path d="M23,652.5l0,17.6" class="g4_1" />
<path d="M27.3,664.6l0,102.5l315.8,0l0,-119.8l-315.8,0l0,17.3Z" class="g5_1" />
<path d="M44.6,647.3l281.2,0" class="g6_1" />
<path d="M44.6,767.1l281.2,0" class="g6_1" />
<path d="M343.1,664.6l0,85.2" class="g6_1" />
<path d="M27.3,664.6l0,85.2" class="g6_1" />
<path d="M27.3,749.8l0,17.9" class="g7_1" />
<path d="M26.7,767.1l17.9,0" class="g7_1" />
<path d="M325.8,767.1l17.9,0" class="g7_1" />
<path d="M343.1,767.7l0,-17.9" class="g7_1" />
<path d="M343.1,664.6l0,-17.9" class="g7_1" />
<path d="M343.7,647.3l-17.9,0" class="g7_1" />
<path d="M44.6,647.3l-17.9,0" class="g7_1" />
<path d="M27.3,646.7l0,17.9" class="g7_1" />
<path d="M21.6,213.5l1168.2,0" class="g8_1" />
<path d="M21.6,213.5l1168.2,0" class="g8_1" />
<image preserveAspectRatio="none" x="1137" y="126" width="51" height="51" xlink:href="img/1.png" />
<path d="M586.3,783.6l-19.8,0" class="g4_1" />
<path d="M553.5,783.9l-19.8,0" class="g4_1" />
<path d="M730.4,716.9l0,-55.3l456.3,0l0,55.3ZM730.3,635.3l0,-55.2l456.3,0l0,55.2ZM729.2,445.4l0,-55.2l458.1,0l0,55.2Z" class="g1_1" />
<path d="M324.1,689L93.6,689" class="g1_1" />
<path d="M325.9,720.5l-271.4,0" class="g1_1" />
<path d="M91.8,752l-27.9,0" class="g1_1" />
<path d="M128.4,752l-27.9,0" class="g1_1" />
<path d="M257.3,751.5l-20,0" class="g1_1" />
<path d="M292.2,751.5l-20.8,0" class="g1_1" />
<path d="M335.8,751.3l-33.5,0" class="g1_1" />
<path d="M680.1,274.8l-263.8,0" class="g1_1" />
<path d="M680.5,306.3l-274.6,0" class="g1_1" />
<path d="M528.5,337.4l-136.1,0" class="g1_1" />
<path d="M600.4,337.4l-44.1,0" class="g1_1" />
<path d="M678.7,337.4l-50.4,0" class="g1_1" />
<path d="M452.3,365.7l-18.4,0" class="g1_1" />
<path d="M489.6,365.7l-18.5,0" class="g1_1" />
<path d="M537.4,365.5l-32.6,0" class="g1_1" />
<path d="M956.7,292l-32.6,0" class="g1_1" />
<path d="M909.2,292.8l-18.4,0" class="g1_1" />
<path d="M871.9,292.9l-18.4,0" class="g1_1" />
<path d="M691.3,522.3l-320.5,0" class="g1_1" />
<path d="M692,593.1l-286.6,0" class="g1_1" />
<path d="M692.8,624.7l-284.5,0" class="g1_1" />
<path d="M545.8,656.6l-152.6,0" class="g1_1" />
<path d="M615.7,658.3l-40.3,0" class="g1_1" />
<path d="M694.9,657.4l-50.4,0" class="g1_1" />
<path d="M937,268l-79.2,0" class="g1_1" />
<path d="M957.9,327.9l-94.3,0" class="g1_1" />
<path d="M896.7,348.1l-96.5,0" class="g1_1" />
<path d="M1123.5,737.9l-32.5,0" class="g1_1" />
<path d="M1076.1,737.8l-18.5,0" class="g1_1" />
<path d="M1038.8,737.9l-18.5,0" class="g1_1" />
<path d="M174.1,752.2l-33.6,0" class="g1_1" />
<path d="M627.9,335.8l0,-19.8l52.8,0l0,19.8Z" class="g9_1" />
<path d="M380.3,410.6c0,-2.3,-1.9,-4.2,-4.2,-4.2c-2.4,0,-4.3,1.9,-4.3,4.2c0,2.3,1.9,4.2,4.3,4.2c2.3,0,4.2,-1.9,4.2,-4.2Z" class="g5_1" />
<path d="M380.3,410.6c0,-2.3,-1.9,-4.2,-4.2,-4.2c-2.4,0,-4.3,1.9,-4.3,4.2c0,2.3,1.9,4.2,4.3,4.2c2.3,0,4.2,-1.9,4.2,-4.2" class="g6_1" />
<path d="M380.2,424c0,-2.3,-1.9,-4.2,-4.3,-4.2c-2.3,0,-4.2,1.9,-4.2,4.2c0,2.4,1.9,4.3,4.2,4.3c2.4,0,4.3,-1.9,4.3,-4.3Z" class="g5_1" />
<path d="M380.2,424c0,-2.3,-1.9,-4.2,-4.3,-4.2c-2.3,0,-4.2,1.9,-4.2,4.2c0,2.4,1.9,4.3,4.2,4.3c2.4,0,4.3,-1.9,4.3,-4.3" class="g6_1" />
<path d="M643.2,654.4l0,-19.8l52.9,0l0,19.8Z" class="g9_1" />
<path d="M381,686.1c0,-2.4,-1.9,-4.3,-4.2,-4.3c-2.3,0,-4.2,1.9,-4.2,4.3c0,2.3,1.9,4.2,4.2,4.2c2.3,0,4.2,-1.9,4.2,-4.2Z" class="g5_1" />
<path d="M381,686.1c0,-2.4,-1.9,-4.3,-4.2,-4.3c-2.3,0,-4.2,1.9,-4.2,4.3c0,2.3,1.9,4.2,4.2,4.2c2.3,0,4.2,-1.9,4.2,-4.2" class="g6_1" />
<path d="M380.9,700.4c0,-2.4,-1.9,-4.3,-4.2,-4.3c-2.4,0,-4.2,1.9,-4.2,4.3c0,2.3,1.8,4.2,4.2,4.2c2.3,0,4.2,-1.9,4.2,-4.2Z" class="g5_1" />
<path d="M380.9,700.4c0,-2.4,-1.9,-4.3,-4.2,-4.3c-2.4,0,-4.2,1.9,-4.2,4.3c0,2.3,1.8,4.2,4.2,4.2c2.3,0,4.2,-1.9,4.2,-4.2" class="g6_1" />
<path d="M381,741.9c0,-2.4,-1.9,-4.3,-4.2,-4.3c-2.3,0,-4.2,1.9,-4.2,4.3c0,2.3,1.9,4.2,4.2,4.2c2.3,0,4.2,-1.9,4.2,-4.2Z" class="g5_1" />
<path d="M381,741.9c0,-2.4,-1.9,-4.3,-4.2,-4.3c-2.3,0,-4.2,1.9,-4.2,4.3c0,2.3,1.9,4.2,4.2,4.2c2.3,0,4.2,-1.9,4.2,-4.2" class="g6_1" />
<path d="M380.9,755.3c0,-2.4,-1.9,-4.3,-4.2,-4.3c-2.4,0,-4.2,1.9,-4.2,4.3c0,2.3,1.8,4.2,4.2,4.2c2.3,0,4.2,-1.9,4.2,-4.2Z" class="g5_1" />
<path d="M380.9,755.3c0,-2.4,-1.9,-4.3,-4.2,-4.3c-2.4,0,-4.2,1.9,-4.2,4.3c0,2.3,1.8,4.2,4.2,4.2c2.3,0,4.2,-1.9,4.2,-4.2" class="g6_1" />
<path d="M536.4,399.9l-32.6,0" class="g1_1" />
<path d="M488.6,400.1l-18.5,0" class="g1_1" />
<path d="M451.3,400.1l-18.5,0" class="g1_1" />
<path d="M680.6,206.7l0,-64.8l302.5,0l0,64.8Z" class="g10_1" />
<path d="M324.1,206l0,-64.1l343.6,0l0,64.1Z" class="g10_1" />
<path d="M1015.7,316.7c0,-2.3,-1.9,-4.2,-4.2,-4.2c-2.4,0,-4.3,1.9,-4.3,4.2c0,2.3,1.9,4.2,4.3,4.2c2.3,0,4.2,-1.9,4.2,-4.2Z" class="g5_1" />
<path d="M1015.7,316.7c0,-2.3,-1.9,-4.2,-4.2,-4.2c-2.4,0,-4.3,1.9,-4.3,4.2c0,2.3,1.9,4.2,4.3,4.2c2.3,0,4.2,-1.9,4.2,-4.2" class="g6_1" />
<path d="M975.7,316.7c0,-2.3,-1.9,-4.2,-4.2,-4.2c-2.4,0,-4.3,1.9,-4.3,4.2c0,2.4,1.9,4.3,4.3,4.3c2.3,0,4.2,-1.9,4.2,-4.3Z" class="g5_1" />
<path d="M975.7,316.7c0,-2.3,-1.9,-4.2,-4.2,-4.2c-2.4,0,-4.3,1.9,-4.3,4.2c0,2.4,1.9,4.3,4.3,4.3c2.3,0,4.2,-1.9,4.2,-4.3" class="g6_1" />
<path d="M994.1,337.2c0,-2.4,-1.9,-4.3,-4.2,-4.3c-2.4,0,-4.2,1.9,-4.2,4.3c0,2.3,1.8,4.2,4.2,4.2c2.3,0,4.2,-1.9,4.2,-4.2Z" class="g5_1" />
<path d="M994.1,337.2c0,-2.4,-1.9,-4.3,-4.2,-4.3c-2.4,0,-4.2,1.9,-4.2,4.3c0,2.3,1.8,4.2,4.2,4.2c2.3,0,4.2,-1.9,4.2,-4.2" class="g6_1" />
<path d="M952,336.6c0,-2.3,-1.9,-4.2,-4.2,-4.2c-2.3,0,-4.2,1.9,-4.2,4.2c0,2.4,1.9,4.3,4.2,4.3c2.3,0,4.2,-1.9,4.2,-4.3Z" class="g5_1" />
<path d="M952,336.6c0,-2.3,-1.9,-4.2,-4.2,-4.2c-2.3,0,-4.2,1.9,-4.2,4.2c0,2.4,1.9,4.3,4.2,4.3c2.3,0,4.2,-1.9,4.2,-4.3" class="g6_1" />
<path d="M914.7,336.7c0,-2.4,-1.9,-4.3,-4.3,-4.3c-2.3,0,-4.2,1.9,-4.2,4.3c0,2.3,1.9,4.2,4.2,4.2c2.4,0,4.3,-1.9,4.3,-4.2Z" class="g5_1" />
<path d="M914.7,336.7c0,-2.4,-1.9,-4.3,-4.3,-4.3c-2.3,0,-4.2,1.9,-4.2,4.3c0,2.3,1.9,4.2,4.2,4.2c2.4,0,4.3,-1.9,4.3,-4.2" class="g6_1" />
<path d="M603.5,754l0,33.3l131.3,0l0,-33.3l-131.3,0Z" class="g11_1" />
<path d="M603.5,754l131.3,0l-0.6,0.6l-130.1,0l0,32.1l-0.6,0.6Z" class="g2_1" />
<path d="M734.8,787.3l-131.3,0l0.6,-0.6l130.1,0l0,-32.1l0.6,-0.6Z" class="g2_1" />
<path d="M604.1,754.6l130.1,0l-0.6,0.6l-128.9,0l0,30.9l-0.6,0.6Z" class="g5_1" />
<path d="M734.2,786.7l-130.1,0l0.6,-0.6l128.9,0l0,-30.9l0.6,-0.6Z" class="g12_1" />
<path d="M750.4,754.3l0,31.5l131.3,0l0,-31.5l-131.3,0Z" class="g11_1" />
<path d="M750.4,754.3l131.3,0l-0.6,0.6l-130.1,0l0,30.3l-0.6,0.6Z" class="g2_1" />
<path d="M881.7,785.8l-131.3,0l0.6,-0.6l130.1,0l0,-30.3l0.6,-0.6Z" class="g2_1" />
<path d="M751,754.9l130.1,0l-0.6,0.7l-128.9,0l0,29l-0.6,0.6Z" class="g5_1" />
<path d="M881.1,785.2l-130.1,0l0.6,-0.6l128.9,0l0,-29l0.6,-0.7Z" class="g12_1" />
<path d="M1048.4,755l0,30.8l95.5,0l0,-30.8l-95.5,0Z" class="g11_1" />
<path d="M1048.4,755l95.5,0l-0.6,0.6l-94.3,0l0,29.6l-0.6,0.6Z" class="g2_1" />
<path d="M1143.9,785.8l-95.5,0l0.6,-0.6l94.3,0l0,-29.6l0.6,-0.6Z" class="g2_1" />
<path d="M1049,755.6l94.3,0l-0.6,0.6l-93.1,0l0,28.4l-0.6,0.6Z" class="g5_1" />
<path d="M1143.3,785.2l-94.3,0l0.6,-0.6l93.1,0l0,-28.4l0.6,-0.6Z" class="g12_1" />
</svg>